<svg version="1" xmlns="http://www.w3.org/2000/svg" width="666.667" height="666.667" viewBox="0 0 500.000000 500.000000"><path d="M59.2 193.2c-.8.8-1.2 4.5-1.2 10 0 7.6.2 8.9 1.9 9.8 1.3.6 18.3 1 48.5 1 40.9 0 46.6-.2 48-1.6 2-1.9 2.3-17.3.4-19.2-1.7-1.7-95.9-1.7-97.6 0zM191.9 194c-8.3 2.5-13.4 10.6-12.7 20 .7 10.3 8.4 17.4 18.8 17.5 5.9 0 14.7-3.4 15.7-6.2.3-.8-.7-2.7-2.2-4.4-2.5-2.5-3.1-2.7-4.4-1.5-5.1 4.7-12.8 3.8-16.2-1.8-2.3-3.7-2.4-6.7-.4-10.6 2.8-5.4 9.3-6.6 15.3-3l3.3 2 2.4-2.7c1.3-1.6 2.5-3.3 2.5-4 0-.6-2.3-2.3-5.2-3.7-5.3-2.7-11.5-3.3-16.9-1.6zM218 212v19h35.8l1.2-3.5 1.2-3.5H272l1.4 3.5c1.5 3.4 1.7 3.5 6.9 3.5h5.5l-8.1-19-8-19h-10.3l-7.7 17.7c-4.8 11.3-7.7 16.8-7.7 15V223h-16v-30h-10v19zm48.9-1.3l2.1 5.3h-4.6c-4.2 0-4.5-.2-3.8-2.2 1.2-3.9 3.5-9 3.9-8.7.2.2 1.3 2.8 2.4 5.6zM293.5 194.8c-5.5 3.4-7.2 7.8-5.4 13 1.3 3.7 3.6 5.3 10.9 7.7 6.4 2 8.5 3.7 7.7 5.9-.9 2.4-6.6 2-12.3-.9-2.7-1.4-5.2-2.5-5.5-2.5-.5 0-3.9 6.5-3.9 7.6 0 .3 2.6 1.7 5.7 3.1 7.1 3.3 16.1 3.7 21.1 1 4.2-2.3 6.7-7.3 5.8-12-.9-4.6-3-6.3-11.8-9.6-4.6-1.7-7.4-3.3-7.6-4.3-.5-2.8 4.2-3.3 10.4-1l5.5 2 1.9-3.9 2-3.8-3.2-1.7c-2-1-6.4-1.9-10.8-2.1-6.1-.4-8.1-.1-10.5 1.5zM327.5 194.8c-5.5 3.4-7.2 7.8-5.4 13 1.3 3.7 3.6 5.3 10.9 7.7 6.4 2 8.5 3.7 7.7 5.9-.9 2.4-6.6 2-12.3-.9-2.7-1.4-5.2-2.5-5.5-2.5-.5 0-3.9 6.5-3.9 7.6 0 .3 2.6 1.7 5.7 3.1 7.1 3.3 16.1 3.7 21.1 1 4.2-2.3 6.7-7.3 5.8-12-.9-4.6-3-6.3-11.8-9.6-4.6-1.7-7.4-3.3-7.6-4.3-.5-2.8 4.2-3.3 10.4-1l5.5 2 1.9-3.9 2-3.8-3.2-1.7c-2-1-6.4-1.9-10.8-2.1-6.1-.4-8.1-.1-10.5 1.5zM73.2 224.2c-1.6 1.6-1.6 17 0 18.6 1.7 1.7 81.9 1.7 83.6 0 .7-.7 1.2-4.3 1.2-9.3 0-5-.5-8.6-1.2-9.3-1.7-1.7-81.9-1.7-83.6 0zM181 255v19h31v-8h-21v-7h18v-8h-18v-7h20v-8h-30v19zM214.6 237.2c.4.7 3.2 4.8 6.2 9.2 6.2 9 6.4 7.8-2.3 19.8l-5.6 7.8h11.9l4-5.6 4-5.6 3.8 5.6 3.7 5.6h5.8c3.3 0 5.9-.3 5.9-.6s-2.9-4.7-6.4-9.8l-6.4-9.1 5.9-8.5c3.2-4.7 5.9-8.8 5.9-9.3 0-.4-2.6-.7-5.8-.7h-5.8l-2.9 5c-1.6 2.7-3.2 5-3.6 5-.4 0-2.1-2.3-3.9-5l-3.2-5h-6c-4.4 0-5.7.3-5.2 1.2zM256 255v19h10v-9.7l6.5-.5c3.6-.3 7.6-1.3 9-2.2 5.6-3.7 7.9-11.4 5.1-17.9-2.3-5.7-7.5-7.7-20.3-7.7H256v19zm20.5-9c1.9 1.5 2 6.4.1 7.9-.7.6-3.4 1.4-6 1.7l-4.6.7v-12.6l4.5.5c2.5.3 5.2 1.1 6 1.8zM292 255v19h10v-10h3.5c3.2 0 3.7.4 6 5l2.5 5h12l-3.7-5.7c-2.3-3.7-3.3-6.1-2.7-6.8 4.3-5.8 4.8-7.1 4.8-12.1 0-4.5-.4-5.8-2.9-8.4-3.8-3.9-7.9-5-19.7-5H292v19zm21.5-9c.8.7 1.5 2.2 1.5 3.4 0 3.8-2.2 5.6-7.7 6.3l-5.3.6v-12.6l5 .5c2.7.3 5.6 1.1 6.5 1.8zM330 255v19h31v-8h-21v-7h18v-8h-18v-7h20v-8h-30v19zM371.2 237.7c-3.8 1.9-6.2 5.8-6.2 10.3 0 4.4 4.4 8.5 11.4 10.5 6.7 1.9 9.2 4 7.5 6.1-1.8 2.1-7 1.7-12.5-1.1-2.7-1.4-5-2.5-5.1-2.5-.9 0-3.3 6.4-2.9 7.5.7 2 5.9 4.4 11.9 5.6 11.2 2.1 19.7-2.8 19.7-11.5 0-5.7-3.1-8.8-11.1-11.2-6.5-1.9-8.5-3.5-7.5-5.9.9-2.4 5.1-1.8 13.7 1.9 2.2 1 5.6-6.2 3.7-7.9-3.9-3.6-16.9-4.7-22.6-1.8zM405.2 237.7c-3.8 1.9-6.2 5.8-6.2 10.3 0 4.4 4.4 8.5 11.4 10.5 6.7 1.9 9.2 4 7.5 6.1-1.8 2.1-7 1.7-12.5-1.1-2.7-1.4-5-2.5-5.1-2.5-.9 0-3.3 6.4-2.9 7.5.7 2 5.9 4.4 11.9 5.6 11.2 2.1 19.7-2.8 19.7-11.5 0-5.7-3.1-8.8-11.1-11.2-6.5-1.9-8.5-3.5-7.5-5.9.9-2.4 5.1-1.8 13.7 1.9 2.2 1 5.6-6.2 3.7-7.9-3.9-3.6-16.9-4.7-22.6-1.8zM95.6 254.6c-1.2 1.1-1.6 3.6-1.6 9.4 0 5.8.4 8.3 1.6 9.4 1.3 1.4 5.5 1.6 30.8 1.6 21.4 0 29.5-.3 30.4-1.2.8-.8 1.2-4.5 1.2-10 0-7.6-.2-8.9-1.9-9.8-1.2-.6-12.7-1-30.5-1-24.5 0-28.7.2-30 1.6zM108.6 285.6c-1.2 1.1-1.6 3.5-1.6 8.5 0 11.6-1.6 10.9 25.3 10.9 16.8 0 23.6-.3 24.5-1.2.7-.7 1.2-4.3 1.2-9.3 0-5-.5-8.6-1.2-9.3-.9-.9-7.6-1.2-23.9-1.2-19.4 0-23 .2-24.3 1.6zM179 295.1c0 4.2 1.7 6.9 4.3 6.9 3.3 0 4.7-1.9 4.7-6.2 0-4.9-1.8-5-2.2-.1-.2 2.7-.8 3.9-2 4.1-1.5.3-1.8-.4-1.8-3.7 0-3-.4-4.1-1.5-4.1-1 0-1.5 1-1.5 3.1zM191.7 292.6c-.4.4-.7 2.7-.7 5.1 0 3.2.4 4.3 1.5 4.3.8 0 1.5-.6 1.5-1.3 0-.7 1-1.7 2.3-2.2 1.4-.7 2.2-1.9 2.2-3.5 0-2.1-.5-2.6-3-2.8-1.7-.2-3.4 0-3.8.4zm4.5 2.9c0 .5-.5 1.1-1.1 1.3-.6.2-1.1-.4-1.1-1.3s.5-1.5 1.1-1.3c.6.2 1.1.8 1.1 1.3zM206 292.7c0 .5.7 1.7 1.5 2.7.8 1.1 1.5 3 1.5 4.3 0 1.4.6 2.3 1.5 2.3.8 0 1.5-.9 1.5-2 0-1.2.7-3.4 1.5-5 1.3-2.6 1.4-3 .1-3-.8 0-1.8.9-2.1 2.1l-.7 2.1-1.5-2.1c-1.4-2.1-3.3-2.8-3.3-1.4zM218 293.9c-2.3 4.4-.5 8.1 4 8.1 1.4 0 3.1-.5 3.8-1.2.7-.7 1.2-2.4 1.2-3.8s-.5-3.1-1.2-3.8c-1.9-1.9-6.6-1.5-7.8.7zm6.5 3.1c0 1.8-.6 2.6-2.1 2.8-2.3.3-3.7-1.8-2.7-4.4 1-2.5 4.8-1.3 4.8 1.6zM230 295.1c0 4.2 1.7 6.9 4.3 6.9 3.3 0 4.7-1.9 4.7-6.2 0-4.9-1.8-5-2.2-.1-.2 2.7-.8 3.9-2 4.1-1.5.3-1.8-.4-1.8-3.7 0-3-.4-4.1-1.5-4.1-1 0-1.5 1-1.5 3.1zM242.7 292.7c-.4.3-.7 2.6-.7 5 0 3.2.4 4.3 1.5 4.3.8 0 1.5-.7 1.5-1.7 0-1.4.2-1.4 2 .2 2.1 1.9 4.2 1.3 2.2-.7-.8-.8-.8-1.7-.1-3 .7-1.4.7-2.3-.2-3.4-1.2-1.4-5.1-1.9-6.2-.7zm4.3 2.2c0 .6-.4 1.3-1 1.6-.5.3-1-.1-1-.9 0-.9.5-1.6 1-1.6.6 0 1 .4 1 .9zM258 297c0 4.9.1 5 3 5 1.7 0 3-.5 3-1 0-.6-.9-1-2-1-1.7 0-2-.7-2-4 0-2.2-.4-4-1-4-.5 0-1 2.2-1 5zM267 297v5h3.5c1.9 0 3.5-.5 3.5-1 0-.6-.9-1-2-1s-2-.5-2-1c0-.6.7-1 1.5-1s1.5-.5 1.5-1c0-.6-.7-1-1.5-1s-1.5-.5-1.5-1c0-.6.9-1 2-1s2-.5 2-1c0-.6-1.6-1-3.5-1H267v5zM276 292.4c0 1.5 4.3 9.6 5.1 9.6.5 0 1.9-2.1 2.9-4.6 2.3-5.3 2.3-5.4 1-5.4-.6 0-1.7 1.5-2.5 3.2l-1.4 3.3-1.3-3.3c-.7-1.7-1.8-3.2-2.5-3.2s-1.3.2-1.3.4zM289 297v5h3.6c2.1 0 3.3-.4 2.9-1-.3-.6-1.5-1-2.6-1-2.6 0-2.4-1.8.4-2.3l2.2-.4-2.2-.8c-2.8-.9-3-2.5-.3-2.5 1.1 0 2-.5 2-1 0-.6-1.3-1-3-1-2.9 0-3 .1-3 5zM298 297v5h3.5c1.9 0 3.5-.5 3.5-1 0-.6-.9-1-2-1-1.7 0-2-.7-2-4 0-2.9-.4-4-1.5-4s-1.5 1.2-1.5 5z"/></svg>